# xmcd
#
# Track frame offsets: 
#        150
#        9545
#        18238
#        29685
#        40691
#        51648
#        60381
#        70352
#        79489
#        98373
#        112204
#        122466
#        130920
#        141787
#        149905
#        157387
#        169267
#        184739
#        197895
#        209380
#        221482
#        233357
#        247051
#        256855
#        265480
#        277416
#        285520
#        296243
#        308436
#        320817
#
# Disc length: 4441 seconds
#
# Revision: 1
# Processed by: cddbd v1.5.1PL2 Copyright (c) Steve Scherf et al.
# Submitted via: ExactAudioCopy v0.95b3
#
DISCID=df11571e
DTITLE=Rigo Tovar - 30 Inolvidables
DYEAR=2003
DGENRE=Grupera
TTITLE0=Matamoros querido
TTITLE1=Mi amiga, mi esposa y mi amante
TTITLE2=Te quiero dijiste
TTITLE3=El testamento
TTITLE4=Mi tinajita
TTITLE5=Cómo será la mujer?
TTITLE6=Recordando Monterrey
TTITLE7=Noches eternas
TTITLE8=No me vuelvo a enamorar
TTITLE9=Renunciación
TTITLE10=Oh qué gusto de volverte a ver!
TTITLE11=Allá en mi pueblo
TTITLE12=Serenata de cumpleaños
TTITLE13=El pájaro Chogüí
TTITLE14=La calandria canta
TTITLE15=Carita de ángel
TTITLE16=Golondrina de ojos negros
TTITLE17=Besando la cruz
TTITLE18=Carta de recuerdo
TTITLE19=No vivamos así
TTITLE20=Qué bonito amor!
TTITLE21=Río rebelde
TTITLE22=Quizás, quizás, quizás
TTITLE23=Cuando tu cariño
TTITLE24=No son palabritas
TTITLE25=Amor sincero
TTITLE26=Lamento de amor
TTITLE27=Página blanca
TTITLE28=Qué manera de perder!
TTITLE29=Puedo cambiar
EXTD=
EXTT0=
EXTT1=
EXTT2=
EXTT3=
EXTT4=
EXTT5=
EXTT6=
EXTT7=
EXTT8=
EXTT9=
EXTT10=
EXTT11=
EXTT12=
EXTT13=
EXTT14=
EXTT15=
EXTT16=
EXTT17=
EXTT18=
EXTT19=
EXTT20=
EXTT21=
EXTT22=
EXTT23=
EXTT24=
EXTT25=
EXTT26=
EXTT27=
EXTT28=
EXTT29=
PLAYORDER=
